<mxfile host="app.diagrams.net" modified="2020-08-18T02:07:43.062Z" agent="5.0 (Windows NT 10.0; WOW64) AppleWebKit/537.36 (KHTML, like Gecko) Chrome/84.0.4147.125 Safari/537.36" etag="dRezaKxTyQBA83nCMNvc" version="13.6.2" type="github">
  <diagram id="R3FBoh7KxAyydo7bTCBf" name="Page-1">
    <mxGraphModel dx="2249" dy="762" grid="1" gridSize="10" guides="1" tooltips="1" connect="1" arrows="1" fold="1" page="1" pageScale="1" pageWidth="827" pageHeight="1169" math="0" shadow="0">
      <root>
        <mxCell id="0" />
        <mxCell id="1" parent="0" />
        <mxCell id="r9fn8rOTyp4k9EbA8CIQ-1" value="" style="whiteSpace=wrap;html=1;aspect=fixed;dashed=1;" vertex="1" parent="1">
          <mxGeometry x="-300" y="20" width="730" height="730" as="geometry" />
        </mxCell>
        <mxCell id="r9fn8rOTyp4k9EbA8CIQ-2" value="Object" style="html=1;dashed=1;" vertex="1" parent="1">
          <mxGeometry x="-180" y="140" width="110" height="50" as="geometry" />
        </mxCell>
      </root>
    </mxGraphModel>
  </diagram>
</mxfile>
